<?xml version="1.0" standalone="no"?>
<!DOCTYPE svg PUBLIC "-//W3C//DTD SVG 20010904//EN"
 "http://www.w3.org/TR/2001/REC-SVG-20010904/DTD/svg10.dtd">
<svg version="1.0" xmlns="http://www.w3.org/2000/svg"
 width="500.000000pt" height="500.000000pt" viewBox="0 0 500.000000 500.000000"
 preserveAspectRatio="xMidYMid meet">
<metadata>
Created by potrace 1.11, written by Peter Selinger 2001-2013
</metadata>
<g transform="translate(0.000000,500.000000) scale(0.100000,-0.100000)"
fill="#000000" stroke="none">
<path d="M2217 4993 c-3 -2 -27 -7 -54 -9 -68 -8 -98 -12 -100 -14 -2 -1 -11
-3 -20 -5 -10 -1 -25 -5 -34 -9 -9 -4 -20 -6 -25 -5 -5 2 -29 -3 -54 -9 -165
-44 -206 -56 -215 -61 -5 -3 -15 -6 -21 -7 -6 -1 -51 -18 -100 -38 -49 -20
-93 -37 -99 -39 -5 -1 -12 -4 -15 -7 -10 -10 -50 -30 -60 -30 -6 0 -28 -11
-50 -25 -22 -14 -40 -23 -40 -20 0 3 -25 -10 -55 -30 -31 -19 -57 -35 -60 -35
-6 0 -223 -148 -235 -160 -3 -3 -30 -25 -60 -50 -199 -162 -382 -368 -528
-598 -48 -76 -195 -368 -195 -389 0 -7 -4 -13 -7 -13 -4 0 -11 -15 -15 -32 -4
-18 -9 -35 -10 -38 -1 -3 -7 -18 -14 -35 -7 -16 -15 -37 -17 -45 -63 -236 -84
-324 -88 -380 -2 -19 -6 -42 -9 -50 -3 -8 -5 -22 -5 -30 -1 -8 -4 -51 -9 -95
-10 -99 -9 -345 1 -445 5 -41 8 -82 8 -90 0 -8 2 -22 5 -30 3 -8 7 -26 8 -40
11 -105 59 -289 129 -495 2 -5 4 -14 6 -20 1 -5 8 -21 15 -35 7 -14 43 -88 80
-165 37 -77 71 -142 74 -145 4 -3 29 -42 56 -88 28 -45 53 -82 57 -82 5 0 8
-6 8 -12 0 -7 13 -27 28 -45 15 -17 36 -44 47 -59 53 -74 289 -317 369 -379
21 -16 44 -36 51 -43 8 -6 16 -12 19 -12 2 0 20 -13 38 -30 18 -16 38 -30 45
-30 7 0 13 -4 13 -10 0 -5 6 -10 14 -10 8 0 16 -4 18 -8 3 -10 92 -66 151 -97
20 -11 37 -23 37 -27 0 -5 3 -7 8 -6 4 1 55 -21 113 -50 58 -29 111 -52 118
-52 6 0 11 -4 11 -8 0 -5 6 -9 14 -9 7 0 38 -10 69 -22 30 -12 61 -23 68 -25
8 -1 19 -4 24 -7 10 -6 61 -22 80 -24 6 -1 17 -5 25 -8 36 -15 184 -48 195
-43 7 2 17 0 22 -5 5 -5 27 -11 49 -13 21 -3 39 -5 39 -6 0 -2 118 -13 153
-13 17 -1 32 -4 32 -7 0 -3 77 -5 170 -5 94 0 170 2 170 5 0 3 24 6 53 6 28 1
77 5 107 9 30 4 66 8 80 9 14 1 30 5 35 8 6 3 30 9 55 13 46 7 223 51 250 62
19 8 20 8 55 18 17 5 46 15 65 23 19 9 40 17 45 18 19 4 178 76 222 100 23 14
43 21 43 17 0 -4 4 -3 8 3 4 6 37 28 75 48 37 21 67 42 67 47 0 6 5 7 10 4 6
-3 10 -1 10 4 0 6 6 11 13 11 7 0 22 7 32 15 11 9 63 48 115 88 119 90 110 82
233 202 135 132 177 180 270 308 79 108 107 152 107 165 0 7 4 12 9 12 6 0 24
29 42 65 17 36 36 65 40 65 5 0 8 3 7 8 -1 4 9 32 24 62 41 86 74 161 87 202
7 21 17 40 22 44 5 3 7 9 4 14 -3 5 -1 19 4 32 24 60 32 86 34 111 1 9 4 17 7
17 7 0 9 11 12 53 1 12 5 24 8 27 4 3 14 50 24 105 10 55 20 107 23 115 16 49
25 517 11 650 -6 65 -34 230 -44 262 -3 10 -7 30 -10 45 -5 29 -9 42 -43 150
-10 34 -17 64 -13 67 3 3 -1 6 -8 6 -7 0 -10 3 -7 7 4 3 2 11 -3 18 -5 6 -11
20 -13 31 -2 10 -9 30 -14 44 -6 14 -11 28 -11 33 -1 4 -8 20 -16 35 -25 45
-60 127 -58 135 1 4 -3 7 -9 7 -5 0 -7 5 -4 10 3 6 2 10 -3 10 -6 0 -15 12
-21 28 -18 43 -60 115 -74 124 -6 4 -9 8 -5 8 9 0 -121 194 -134 198 -4 2 -8
8 -8 13 0 6 -12 22 -26 37 -14 15 -33 39 -42 55 -9 15 -23 27 -31 27 -8 0 -12
3 -8 6 3 4 -9 22 -28 40 -19 19 -35 38 -35 44 0 5 -4 10 -8 10 -5 0 -42 33
-83 73 -41 40 -96 90 -124 112 -27 22 -52 42 -55 45 -17 17 -88 67 -102 73
-10 3 -18 11 -18 17 0 5 -4 10 -10 10 -8 0 -53 27 -107 65 -13 9 -26 16 -30
16 -5 0 -15 6 -23 13 -8 7 -30 19 -47 27 -18 8 -33 17 -33 21 0 5 -3 7 -7 6
-5 0 -47 18 -96 40 -48 23 -92 42 -97 42 -6 0 -10 5 -10 11 0 5 -4 8 -8 5 -5
-3 -20 1 -35 9 -14 7 -28 11 -31 7 -3 -3 -6 1 -6 8 0 7 -2 11 -6 8 -3 -3 -28
3 -55 13 -28 11 -54 17 -59 14 -4 -3 -10 -1 -12 4 -3 9 -188 62 -218 62 -8 1
-22 3 -30 6 -8 3 -22 7 -30 8 -24 4 -102 17 -140 22 -46 7 -597 13 -603 6z"/>
</g>
</svg>
